<svg id="Layer_1" data-name="Layer 1" xmlns="http://www.w3.org/2000/svg" viewBox="0 0 1446.87 518.16"><defs><style>.cls-1{fill:#231f20;}</style></defs><title>PSP_logo_draft_1</title><path class="cls-1" d="M226.82,488.13a8.72,8.72,0,0,1,4.65-4.65,8.84,8.84,0,0,1,6.84,0,9.16,9.16,0,0,1,2.81,1.87,8.65,8.65,0,0,1,1.89,2.78,8.84,8.84,0,0,1,0,6.84,8.9,8.9,0,0,1-4.7,4.7,8.71,8.71,0,0,1-9.62-1.9,9.12,9.12,0,0,1-1.87-2.81,8.84,8.84,0,0,1,0-6.84Z"/><path class="cls-1" d="M389.29,488.13a8.72,8.72,0,0,1,4.65-4.65,8.84,8.84,0,0,1,6.84,0,9.16,9.16,0,0,1,2.81,1.87,8.65,8.65,0,0,1,1.89,2.78,8.84,8.84,0,0,1,0,6.84,8.9,8.9,0,0,1-4.7,4.7,8.71,8.71,0,0,1-9.62-1.9,9.12,9.12,0,0,1-1.87-2.81,8.84,8.84,0,0,1,0-6.84Z"/><path class="cls-1" d="M551.76,488.13a8.72,8.72,0,0,1,4.65-4.65,8.84,8.84,0,0,1,6.84,0,9.16,9.16,0,0,1,2.81,1.87,8.65,8.65,0,0,1,1.89,2.78,8.84,8.84,0,0,1,0,6.84,8.9,8.9,0,0,1-4.7,4.7,8.71,8.71,0,0,1-9.62-1.9,9.12,9.12,0,0,1-1.87-2.81,8.84,8.84,0,0,1,0-6.84Z"/><path class="cls-1" d="M714.24,488a8.72,8.72,0,0,1,4.65-4.65,8.84,8.84,0,0,1,6.84,0,9.16,9.16,0,0,1,2.81,1.87,8.65,8.65,0,0,1,1.89,2.78,8.84,8.84,0,0,1,0,6.84,8.9,8.9,0,0,1-4.7,4.7,8.71,8.71,0,0,1-9.62-1.9,9.12,9.12,0,0,1-1.87-2.81,8.84,8.84,0,0,1,0-6.84Z"/><path class="cls-1" d="M876.71,488a8.72,8.72,0,0,1,4.65-4.65,8.84,8.84,0,0,1,6.84,0,9.16,9.16,0,0,1,2.81,1.87,8.65,8.65,0,0,1,1.89,2.78,8.84,8.84,0,0,1,0,6.84,8.9,8.9,0,0,1-4.7,4.7,8.71,8.71,0,0,1-9.62-1.9,9.12,9.12,0,0,1-1.87-2.81,8.84,8.84,0,0,1,0-6.84Z"/><path class="cls-1" d="M1039.18,488a8.72,8.72,0,0,1,4.65-4.65,8.84,8.84,0,0,1,6.84,0,9.16,9.16,0,0,1,2.81,1.87,8.65,8.65,0,0,1,1.89,2.78,8.84,8.84,0,0,1,0,6.84,8.9,8.9,0,0,1-4.7,4.7,8.71,8.71,0,0,1-9.62-1.9,9.12,9.12,0,0,1-1.87-2.81,8.84,8.84,0,0,1,0-6.84Z"/><path class="cls-1" d="M1201.66,488a8.72,8.72,0,0,1,4.65-4.65,8.84,8.84,0,0,1,6.84,0,9.16,9.16,0,0,1,2.81,1.87,8.65,8.65,0,0,1,1.89,2.78,8.84,8.84,0,0,1,0,6.84,8.9,8.9,0,0,1-4.7,4.7,8.71,8.71,0,0,1-9.62-1.9,9.12,9.12,0,0,1-1.87-2.81,8.84,8.84,0,0,1,0-6.84Z"/><path class="cls-1" d="M226.82,21.32a8.72,8.72,0,0,1,4.65-4.65,8.84,8.84,0,0,1,6.84,0,9.16,9.16,0,0,1,2.81,1.87A8.65,8.65,0,0,1,243,21.32a8.84,8.84,0,0,1,0,6.84,8.9,8.9,0,0,1-4.7,4.7,8.71,8.71,0,0,1-9.62-1.9,9.12,9.12,0,0,1-1.87-2.81,8.84,8.84,0,0,1,0-6.84Z"/><path class="cls-1" d="M389.29,21.32a8.72,8.72,0,0,1,4.65-4.65,8.84,8.84,0,0,1,6.84,0,9.16,9.16,0,0,1,2.81,1.87,8.65,8.65,0,0,1,1.89,2.78,8.84,8.84,0,0,1,0,6.84,8.9,8.9,0,0,1-4.7,4.7,8.71,8.71,0,0,1-9.62-1.9,9.12,9.12,0,0,1-1.87-2.81,8.84,8.84,0,0,1,0-6.84Z"/><path class="cls-1" d="M551.76,21.32a8.72,8.72,0,0,1,4.65-4.65,8.84,8.84,0,0,1,6.84,0,9.16,9.16,0,0,1,2.81,1.87A8.65,8.65,0,0,1,568,21.32a8.84,8.84,0,0,1,0,6.84,8.9,8.9,0,0,1-4.7,4.7,8.71,8.71,0,0,1-9.62-1.9,9.12,9.12,0,0,1-1.87-2.81,8.84,8.84,0,0,1,0-6.84Z"/><path class="cls-1" d="M714.24,21.24a8.72,8.72,0,0,1,4.65-4.65,8.84,8.84,0,0,1,6.84,0,9.16,9.16,0,0,1,2.81,1.87,8.65,8.65,0,0,1,1.89,2.78,8.84,8.84,0,0,1,0,6.84,8.9,8.9,0,0,1-4.7,4.7,8.71,8.71,0,0,1-9.62-1.9,9.12,9.12,0,0,1-1.87-2.81,8.84,8.84,0,0,1,0-6.84Z"/><path class="cls-1" d="M876.71,21.24a8.72,8.72,0,0,1,4.65-4.65,8.84,8.84,0,0,1,6.84,0A9.16,9.16,0,0,1,891,18.46a8.65,8.65,0,0,1,1.89,2.78,8.84,8.84,0,0,1,0,6.84,8.9,8.9,0,0,1-4.7,4.7,8.71,8.71,0,0,1-9.62-1.9,9.12,9.12,0,0,1-1.87-2.81,8.84,8.84,0,0,1,0-6.84Z"/><path class="cls-1" d="M1039.18,21.24a8.72,8.72,0,0,1,4.65-4.65,8.84,8.84,0,0,1,6.84,0,9.16,9.16,0,0,1,2.81,1.87,8.65,8.65,0,0,1,1.89,2.78,8.84,8.84,0,0,1,0,6.84,8.9,8.9,0,0,1-4.7,4.7,8.71,8.71,0,0,1-9.62-1.9,9.12,9.12,0,0,1-1.87-2.81,8.84,8.84,0,0,1,0-6.84Z"/><path class="cls-1" d="M1201.66,21.24a8.72,8.72,0,0,1,4.65-4.65,8.84,8.84,0,0,1,6.84,0,9.16,9.16,0,0,1,2.81,1.87,8.65,8.65,0,0,1,1.89,2.78,8.84,8.84,0,0,1,0,6.84,8.9,8.9,0,0,1-4.7,4.7,8.71,8.71,0,0,1-9.62-1.9,9.12,9.12,0,0,1-1.87-2.81,8.84,8.84,0,0,1,0-6.84Z"/><path class="cls-1" d="M238.12,165.18a16.12,16.12,0,0,1,6.17,1.05,11.57,11.57,0,0,1,4.14,2.79,10.71,10.71,0,0,1,2.33,4,14.76,14.76,0,0,1,0,9.18,10.68,10.68,0,0,1-2.33,4,11.55,11.55,0,0,1-4.14,2.79,16.09,16.09,0,0,1-6.17,1.06h-8.94v13.87h-8.5V165.18Zm-2.33,18.2a17.65,17.65,0,0,0,2.82-.22,6.53,6.53,0,0,0,2.38-.84,4.57,4.57,0,0,0,1.65-1.76,7.44,7.44,0,0,0,0-6,4.58,4.58,0,0,0-1.65-1.76,6.59,6.59,0,0,0-2.38-.84,18,18,0,0,0-2.82-.22h-6.61v11.59Z"/><path class="cls-1" d="M403.75,164.28a12.45,12.45,0,0,1,4.69.84,10.82,10.82,0,0,1,3.58,2.3,10,10,0,0,1,2.27,3.39,10.86,10.86,0,0,1,.79,4.14,11.63,11.63,0,0,1-1.44,5.9,9,9,0,0,1-4.69,3.79v.11a6.55,6.55,0,0,1,2.6,1.33,7.35,7.35,0,0,1,1.68,2.11,9.83,9.83,0,0,1,.95,2.68,23.54,23.54,0,0,1,.41,2.93q.05.92.11,2.17t.19,2.55a17,17,0,0,0,.43,2.47,5.68,5.68,0,0,0,.89,2h-8.5a15,15,0,0,1-.87-4.39q-.16-2.55-.49-4.87a7.69,7.69,0,0,0-1.84-4.44q-1.41-1.41-4.6-1.41h-8.5v15.11h-8.5V164.28Zm-3,17.49a6.43,6.43,0,0,0,4.39-1.3,5.39,5.39,0,0,0,1.46-4.22,5.16,5.16,0,0,0-1.46-4.09,6.53,6.53,0,0,0-4.39-1.27H391.4v10.89Z"/><path class="cls-1" d="M542.78,176.25a19.33,19.33,0,0,1,3.74-6.47,17.09,17.09,0,0,1,6-4.33,21.17,21.17,0,0,1,16,0,17.17,17.17,0,0,1,6,4.33,19.33,19.33,0,0,1,3.74,6.47,24.17,24.17,0,0,1,1.3,8,23.35,23.35,0,0,1-1.3,7.88,18.81,18.81,0,0,1-3.74,6.36,17.17,17.17,0,0,1-6,4.25,21.52,21.52,0,0,1-16,0,17.1,17.1,0,0,1-6-4.25,18.82,18.82,0,0,1-3.74-6.36,23.35,23.35,0,0,1-1.3-7.88A24.17,24.17,0,0,1,542.78,176.25ZM550.55,189a12.79,12.79,0,0,0,1.81,4.14,9.27,9.27,0,0,0,3.25,3,11.25,11.25,0,0,0,9.75,0,9.3,9.3,0,0,0,3.25-3,12.81,12.81,0,0,0,1.81-4.14,19.68,19.68,0,0,0,.57-4.74,21.16,21.16,0,0,0-.57-4.93,13.06,13.06,0,0,0-1.81-4.25,9.22,9.22,0,0,0-3.25-3,11.27,11.27,0,0,0-9.75,0,9.2,9.2,0,0,0-3.25,3,13,13,0,0,0-1.81,4.25,21.12,21.12,0,0,0-.57,4.93A19.64,19.64,0,0,0,550.55,189Z"/><path class="cls-1" d="M736.32,195a10.19,10.19,0,0,1-5.63,7.56,15,15,0,0,1-6.88,1.33,16.41,16.41,0,0,1-4.71-.68,11.74,11.74,0,0,1-4.06-2.11,10.44,10.44,0,0,1-2.87-3.68,12.45,12.45,0,0,1-1.08-5.44v-3.36h7.69v1.73a14.58,14.58,0,0,0,.22,2.6,5.53,5.53,0,0,0,.76,2,3.79,3.79,0,0,0,1.49,1.33,5.38,5.38,0,0,0,2.46.49,4.78,4.78,0,0,0,2.6-.6,3.41,3.41,0,0,0,1.33-1.54,6.35,6.35,0,0,0,.49-2.06c.05-.74.08-1.45.08-2.14v-26.1h8.5v26.48A25.55,25.55,0,0,1,736.32,195Z"/><path class="cls-1" d="M900.76,165.14v7.15H880.34v8.29h18.74v6.61H880.34v9.48h20.85v7.15H871.83V165.14Z"/><path class="cls-1" d="M1057,175.49a8.55,8.55,0,0,0-1.9-2.14,8.75,8.75,0,0,0-2.57-1.43,8.84,8.84,0,0,0-3-.51,9.94,9.94,0,0,0-4.87,1.11,9.2,9.2,0,0,0-3.25,3,13,13,0,0,0-1.81,4.25,21.12,21.12,0,0,0-.57,4.93,19.64,19.64,0,0,0,.57,4.74,12.79,12.79,0,0,0,1.81,4.14,9.27,9.27,0,0,0,3.25,3,9.92,9.92,0,0,0,4.87,1.11,7.86,7.86,0,0,0,6.09-2.38,11,11,0,0,0,2.68-6.28h8.23a19.67,19.67,0,0,1-1.68,6.55,15.69,15.69,0,0,1-3.57,5,15.22,15.22,0,0,1-5.2,3.14,19.08,19.08,0,0,1-6.55,1.08,19.82,19.82,0,0,1-8-1.54,17.1,17.1,0,0,1-6-4.25,18.82,18.82,0,0,1-3.74-6.36,23.35,23.35,0,0,1-1.3-7.88,24.17,24.17,0,0,1,1.3-8,19.33,19.33,0,0,1,3.74-6.47,17.09,17.09,0,0,1,6-4.33,20.73,20.73,0,0,1,14-.65,16.36,16.36,0,0,1,5.09,2.68,14.51,14.51,0,0,1,3.71,4.36,15.6,15.6,0,0,1,1.84,6H1058A7,7,0,0,0,1057,175.49Z"/><path class="cls-1" d="M1194.5,172.29v-7.15h31.68v7.15h-11.59v31.52h-8.5V172.29Z"/><path class="cls-1" d="M716.13,353.26a6.14,6.14,0,0,0,1.87,2.19,8.06,8.06,0,0,0,2.74,1.25,12.92,12.92,0,0,0,3.25.41,16.9,16.9,0,0,0,2.44-.19,8.46,8.46,0,0,0,2.44-.73,5.3,5.3,0,0,0,1.9-1.49,3.74,3.74,0,0,0,.76-2.41,3.4,3.4,0,0,0-1-2.55,8,8,0,0,0-2.63-1.63A26.15,26.15,0,0,0,724.2,347q-2.06-.49-4.17-1.08a36.83,36.83,0,0,1-4.22-1.33,14.48,14.48,0,0,1-3.68-2,9.57,9.57,0,0,1-2.63-3.11,9.45,9.45,0,0,1-1-4.52,10.12,10.12,0,0,1,1.27-5.17,11.52,11.52,0,0,1,3.33-3.66,14.52,14.52,0,0,1,4.66-2.17,19.87,19.87,0,0,1,5.2-.7,24.65,24.65,0,0,1,5.82.68,14.56,14.56,0,0,1,5,2.19,11.09,11.09,0,0,1,3.44,3.87,11.89,11.89,0,0,1,1.27,5.71h-8.23a6.86,6.86,0,0,0-.73-2.87,4.79,4.79,0,0,0-1.65-1.79,7,7,0,0,0-2.36-.92,14.47,14.47,0,0,0-2.9-.27,10,10,0,0,0-2.06.22,5.5,5.5,0,0,0-1.87.76,4.68,4.68,0,0,0-1.38,1.35,3.63,3.63,0,0,0-.54,2.06,3.47,3.47,0,0,0,.43,1.84,3.87,3.87,0,0,0,1.71,1.3,21.62,21.62,0,0,0,3.52,1.19q2.25.6,5.88,1.52,1.08.22,3,.79a14.45,14.45,0,0,1,3.82,1.81,11.59,11.59,0,0,1,3.28,3.33,9.48,9.48,0,0,1,1.38,5.33,11.82,11.82,0,0,1-1,4.93,10.7,10.7,0,0,1-3.06,3.93,14.7,14.7,0,0,1-5,2.57,23.81,23.81,0,0,1-7,.92,24.48,24.48,0,0,1-6.2-.79,15.59,15.59,0,0,1-5.31-2.47,12.16,12.16,0,0,1-3.66-4.28,12.77,12.77,0,0,1-1.3-6.18h8.23A7.09,7.09,0,0,0,716.13,353.26Z"/><path class="cls-1" d="M227,340a8.72,8.72,0,0,1,4.65-4.65,8.84,8.84,0,0,1,6.84,0,9.16,9.16,0,0,1,2.81,1.87A8.65,8.65,0,0,1,243.2,340a8.84,8.84,0,0,1,0,6.84,8.9,8.9,0,0,1-4.7,4.7,8.71,8.71,0,0,1-9.62-1.9,9.12,9.12,0,0,1-1.87-2.81,8.84,8.84,0,0,1,0-6.84Z"/><path class="cls-1" d="M64.34,488.13A8.72,8.72,0,0,1,69,483.48a8.84,8.84,0,0,1,6.84,0,9.16,9.16,0,0,1,2.81,1.87,8.65,8.65,0,0,1,1.89,2.78,8.84,8.84,0,0,1,0,6.84,8.9,8.9,0,0,1-4.7,4.7,8.71,8.71,0,0,1-9.62-1.9A9.12,9.12,0,0,1,64.34,495a8.84,8.84,0,0,1,0-6.84Z"/><path class="cls-1" d="M64.34,21.32A8.72,8.72,0,0,1,69,16.67a8.84,8.84,0,0,1,6.84,0,9.16,9.16,0,0,1,2.81,1.87,8.65,8.65,0,0,1,1.89,2.78,8.84,8.84,0,0,1,0,6.84,8.9,8.9,0,0,1-4.7,4.7A8.71,8.71,0,0,1,66.21,31a9.12,9.12,0,0,1-1.87-2.81,8.84,8.84,0,0,1,0-6.84Z"/><path class="cls-1" d="M64.51,340a8.72,8.72,0,0,1,4.65-4.65,8.84,8.84,0,0,1,6.84,0,9.16,9.16,0,0,1,2.81,1.87A8.65,8.65,0,0,1,80.71,340a8.84,8.84,0,0,1,0,6.84,8.9,8.9,0,0,1-4.7,4.7,8.71,8.71,0,0,1-9.62-1.9,9.12,9.12,0,0,1-1.87-2.81,8.84,8.84,0,0,1,0-6.84Z"/><path class="cls-1" d="M64.51,180.16a8.72,8.72,0,0,1,4.65-4.65,8.84,8.84,0,0,1,6.84,0,9.16,9.16,0,0,1,2.81,1.87,8.65,8.65,0,0,1,1.89,2.78,8.84,8.84,0,0,1,0,6.84,8.9,8.9,0,0,1-4.7,4.7,8.71,8.71,0,0,1-9.62-1.9A9.12,9.12,0,0,1,64.51,187a8.84,8.84,0,0,1,0-6.84Z"/><path class="cls-1" d="M1364.13,488.13a8.72,8.72,0,0,1,4.65-4.65,8.84,8.84,0,0,1,6.84,0,9.16,9.16,0,0,1,2.81,1.87,8.65,8.65,0,0,1,1.89,2.78,8.84,8.84,0,0,1,0,6.84,8.9,8.9,0,0,1-4.7,4.7,8.71,8.71,0,0,1-9.62-1.9,9.12,9.12,0,0,1-1.87-2.81,8.84,8.84,0,0,1,0-6.84Z"/><path class="cls-1" d="M1364.13,21.32a8.72,8.72,0,0,1,4.65-4.65,8.84,8.84,0,0,1,6.84,0,9.16,9.16,0,0,1,2.81,1.87,8.65,8.65,0,0,1,1.89,2.78,8.84,8.84,0,0,1,0,6.84,8.9,8.9,0,0,1-4.7,4.7A8.71,8.71,0,0,1,1366,31a9.12,9.12,0,0,1-1.87-2.81,8.84,8.84,0,0,1,0-6.84Z"/><path class="cls-1" d="M1364.3,340a8.72,8.72,0,0,1,4.65-4.65,8.84,8.84,0,0,1,6.84,0,9.16,9.16,0,0,1,2.81,1.87,8.65,8.65,0,0,1,1.89,2.78,8.84,8.84,0,0,1,0,6.84,8.9,8.9,0,0,1-4.7,4.7,8.71,8.71,0,0,1-9.62-1.9,9.12,9.12,0,0,1-1.87-2.81,8.84,8.84,0,0,1,0-6.84Z"/><path class="cls-1" d="M1364.3,180.16a8.72,8.72,0,0,1,4.65-4.65,8.84,8.84,0,0,1,6.84,0,9.16,9.16,0,0,1,2.81,1.87,8.65,8.65,0,0,1,1.89,2.78,8.84,8.84,0,0,1,0,6.84,8.9,8.9,0,0,1-4.7,4.7,8.71,8.71,0,0,1-9.62-1.9,9.12,9.12,0,0,1-1.87-2.81,8.84,8.84,0,0,1,0-6.84Z"/><path class="cls-1" d="M389.49,340a8.72,8.72,0,0,1,4.65-4.65,8.84,8.84,0,0,1,6.84,0,9.16,9.16,0,0,1,2.81,1.87,8.65,8.65,0,0,1,1.89,2.78,8.84,8.84,0,0,1,0,6.84,8.9,8.9,0,0,1-4.7,4.7,8.71,8.71,0,0,1-9.62-1.9,9.12,9.12,0,0,1-1.87-2.81,8.84,8.84,0,0,1,0-6.84Z"/><path class="cls-1" d="M552,340a8.72,8.72,0,0,1,4.65-4.65,8.84,8.84,0,0,1,6.84,0,9.16,9.16,0,0,1,2.81,1.87,8.65,8.65,0,0,1,1.89,2.78,8.84,8.84,0,0,1,0,6.84,8.9,8.9,0,0,1-4.7,4.7,8.71,8.71,0,0,1-9.62-1.9,9.12,9.12,0,0,1-1.87-2.81,8.84,8.84,0,0,1,0-6.84Z"/><path class="cls-1" d="M868.38,335.57a19.33,19.33,0,0,1,3.74-6.47,17.08,17.08,0,0,1,6-4.33,21.17,21.17,0,0,1,16,0,17.17,17.17,0,0,1,6,4.33,19.33,19.33,0,0,1,3.74,6.47,24.19,24.19,0,0,1,1.3,8,23.37,23.37,0,0,1-1.3,7.88,18.82,18.82,0,0,1-3.74,6.36,17.17,17.17,0,0,1-6,4.25,21.51,21.51,0,0,1-16,0,17.09,17.09,0,0,1-6-4.25,18.82,18.82,0,0,1-3.74-6.36,23.33,23.33,0,0,1-1.3-7.88A24.15,24.15,0,0,1,868.38,335.57Zm7.77,12.78A12.83,12.83,0,0,0,878,352.5a9.28,9.28,0,0,0,3.25,3,11.25,11.25,0,0,0,9.75,0,9.31,9.31,0,0,0,3.25-3,12.83,12.83,0,0,0,1.81-4.14,19.72,19.72,0,0,0,.57-4.74,21.2,21.2,0,0,0-.57-4.93,13.08,13.08,0,0,0-1.81-4.25,9.23,9.23,0,0,0-3.25-3,11.26,11.26,0,0,0-9.75,0,9.21,9.21,0,0,0-3.25,3,13.08,13.08,0,0,0-1.81,4.25,21.12,21.12,0,0,0-.57,4.93A19.64,19.64,0,0,0,876.15,348.35Z"/><path class="cls-1" d="M1060.25,359.3q-4.39,3.82-12.13,3.82T1036,359.32q-4.31-3.79-4.31-11.7v-24h8.5v24a17.45,17.45,0,0,0,.27,3.09,6,6,0,0,0,3.55,4.58,9.8,9.8,0,0,0,4.14.73q4.55,0,6.28-2t1.73-6.36v-24h8.5v24Q1064.64,355.48,1060.25,359.3Z"/><path class="cls-1" d="M1204.75,324v31.52h18.85v7.15h-27.35V324Z"/></svg>