<?xml version="1.0" encoding="utf-8"?>
<!-- Generator: Adobe Illustrator 21.1.0, SVG Export Plug-In . SVG Version: 6.00 Build 0)  -->
<svg version="1.1" id="Layer_1" xmlns="http://www.w3.org/2000/svg" xmlns:xlink="http://www.w3.org/1999/xlink" x="0px" y="0px"
	 viewBox="0 0 1166.7 682.1" style="enable-background:new 0 0 1166.7 682.1;" xml:space="preserve">
<style type="text/css">
	.st0{fill:#FFFFFF;}
	.st1{fill:#231F20;}
</style>
<g>
	<g>
		<path class="st0" d="M87,570.1c0.5-1.1,1.1-2,1.9-2.8c0.8-0.8,1.7-1.4,2.8-1.9s2.2-0.7,3.4-0.7c1.2,0,2.4,0.2,3.4,0.7
			c1.1,0.5,2,1.1,2.8,1.9c0.8,0.8,1.4,1.7,1.9,2.8c0.5,1.1,0.7,2.2,0.7,3.4c0,1.2-0.2,2.4-0.7,3.4c-0.5,1.1-1.1,2-1.9,2.8
			c-0.8,0.8-1.7,1.4-2.8,1.9c-1.1,0.5-2.2,0.7-3.4,0.7c-1.2,0-2.4-0.2-3.4-0.7s-2-1.1-2.8-1.9s-1.4-1.7-1.9-2.8
			c-0.5-1.1-0.7-2.2-0.7-3.4C86.3,572.3,86.6,571.2,87,570.1z"/>
	</g>
	<g>
		<path class="st0" d="M249.7,570.1c0.5-1.1,1.1-2,1.9-2.8c0.8-0.8,1.7-1.4,2.8-1.9s2.2-0.7,3.4-0.7c1.2,0,2.4,0.2,3.4,0.7
			c1.1,0.5,2,1.1,2.8,1.9c0.8,0.8,1.4,1.7,1.9,2.8c0.5,1.1,0.7,2.2,0.7,3.4c0,1.2-0.2,2.4-0.7,3.4c-0.5,1.1-1.1,2-1.9,2.8
			c-0.8,0.8-1.7,1.4-2.8,1.9c-1.1,0.5-2.2,0.7-3.4,0.7c-1.2,0-2.4-0.2-3.4-0.7s-2-1.1-2.8-1.9c-0.8-0.8-1.4-1.7-1.9-2.8
			c-0.5-1.1-0.7-2.2-0.7-3.4C249,572.3,249.2,571.2,249.7,570.1z"/>
	</g>
	<g>
		<path class="st0" d="M411.7,570.1c0.5-1.1,1.1-2,1.9-2.8c0.8-0.8,1.7-1.4,2.8-1.9s2.2-0.7,3.4-0.7c1.2,0,2.4,0.2,3.4,0.7
			c1.1,0.5,2,1.1,2.8,1.9c0.8,0.8,1.4,1.7,1.9,2.8c0.5,1.1,0.7,2.2,0.7,3.4c0,1.2-0.2,2.4-0.7,3.4c-0.5,1.1-1.1,2-1.9,2.8
			c-0.8,0.8-1.7,1.4-2.8,1.9c-1.1,0.5-2.2,0.7-3.4,0.7c-1.2,0-2.4-0.2-3.4-0.7s-2-1.1-2.8-1.9c-0.8-0.8-1.4-1.7-1.9-2.8
			c-0.5-1.1-0.7-2.2-0.7-3.4C411,572.3,411.3,571.2,411.7,570.1z"/>
	</g>
	<g>
		<path class="st0" d="M575.1,570c0.5-1.1,1.1-2,1.9-2.8c0.8-0.8,1.7-1.4,2.8-1.9c1.1-0.5,2.2-0.7,3.4-0.7c1.2,0,2.4,0.2,3.4,0.7
			c1.1,0.5,2,1.1,2.8,1.9c0.8,0.8,1.4,1.7,1.9,2.8c0.5,1.1,0.7,2.2,0.7,3.4c0,1.2-0.2,2.4-0.7,3.4c-0.5,1.1-1.1,2-1.9,2.8
			c-0.8,0.8-1.7,1.4-2.8,1.9c-1.1,0.5-2.2,0.7-3.4,0.7c-1.2,0-2.4-0.2-3.4-0.7c-1.1-0.5-2-1.1-2.8-1.9s-1.4-1.7-1.9-2.8
			c-0.5-1.1-0.7-2.2-0.7-3.4C574.4,572.2,574.6,571.1,575.1,570z"/>
	</g>
	<g>
		<path class="st0" d="M737.7,570c0.5-1.1,1.1-2,1.9-2.8c0.8-0.8,1.7-1.4,2.8-1.9c1.1-0.5,2.2-0.7,3.4-0.7c1.2,0,2.4,0.2,3.4,0.7
			c1.1,0.5,2,1.1,2.8,1.9c0.8,0.8,1.4,1.7,1.9,2.8c0.5,1.1,0.7,2.2,0.7,3.4c0,1.2-0.2,2.4-0.7,3.4c-0.5,1.1-1.1,2-1.9,2.8
			c-0.8,0.8-1.7,1.4-2.8,1.9c-1.1,0.5-2.2,0.7-3.4,0.7c-1.2,0-2.4-0.2-3.4-0.7c-1.1-0.5-2-1.1-2.8-1.9s-1.4-1.7-1.9-2.8
			c-0.5-1.1-0.7-2.2-0.7-3.4C737,572.2,737.3,571.1,737.7,570z"/>
	</g>
	<g>
		<path class="st0" d="M899.8,570c0.5-1.1,1.1-2,1.9-2.8c0.8-0.8,1.7-1.4,2.8-1.9c1.1-0.5,2.2-0.7,3.4-0.7c1.2,0,2.4,0.2,3.4,0.7
			c1.1,0.5,2,1.1,2.8,1.9c0.8,0.8,1.4,1.7,1.9,2.8c0.5,1.1,0.7,2.2,0.7,3.4c0,1.2-0.2,2.4-0.7,3.4c-0.5,1.1-1.1,2-1.9,2.8
			c-0.8,0.8-1.7,1.4-2.8,1.9c-1.1,0.5-2.2,0.7-3.4,0.7c-1.2,0-2.4-0.2-3.4-0.7c-1.1-0.5-2-1.1-2.8-1.9s-1.4-1.7-1.9-2.8
			c-0.5-1.1-0.7-2.2-0.7-3.4C899.1,572.2,899.3,571.1,899.8,570z"/>
	</g>
	<g>
		<path class="st0" d="M1061.6,570c0.5-1.1,1.1-2,1.9-2.8c0.8-0.8,1.7-1.4,2.8-1.9c1.1-0.5,2.2-0.7,3.4-0.7c1.2,0,2.4,0.2,3.4,0.7
			c1.1,0.5,2,1.1,2.8,1.9c0.8,0.8,1.4,1.7,1.9,2.8c0.5,1.1,0.7,2.2,0.7,3.4c0,1.2-0.2,2.4-0.7,3.4c-0.5,1.1-1.1,2-1.9,2.8
			c-0.8,0.8-1.7,1.4-2.8,1.9c-1.1,0.5-2.2,0.7-3.4,0.7c-1.2,0-2.4-0.2-3.4-0.7c-1.1-0.5-2-1.1-2.8-1.9s-1.4-1.7-1.9-2.8
			c-0.5-1.1-0.7-2.2-0.7-3.4C1060.9,572.2,1061.1,571.1,1061.6,570z"/>
	</g>
	<g>
		<path class="st0" d="M87,103.3c0.5-1.1,1.1-2,1.9-2.8c0.8-0.8,1.7-1.4,2.8-1.9s2.2-0.7,3.4-0.7c1.2,0,2.4,0.2,3.4,0.7
			c1.1,0.5,2,1.1,2.8,1.9c0.8,0.8,1.4,1.7,1.9,2.8c0.5,1.1,0.7,2.2,0.7,3.4c0,1.2-0.2,2.4-0.7,3.4c-0.5,1.1-1.1,2-1.9,2.8
			c-0.8,0.8-1.7,1.4-2.8,1.9c-1.1,0.5-2.2,0.7-3.4,0.7c-1.2,0-2.4-0.2-3.4-0.7s-2-1.1-2.8-1.9s-1.4-1.7-1.9-2.8
			c-0.5-1.1-0.7-2.2-0.7-3.4C86.3,105.5,86.6,104.4,87,103.3z"/>
	</g>
	<g>
		<path class="st0" d="M249.7,103.3c0.5-1.1,1.1-2,1.9-2.8c0.8-0.8,1.7-1.4,2.8-1.9s2.2-0.7,3.4-0.7c1.2,0,2.4,0.2,3.4,0.7
			c1.1,0.5,2,1.1,2.8,1.9c0.8,0.8,1.4,1.7,1.9,2.8c0.5,1.1,0.7,2.2,0.7,3.4c0,1.2-0.2,2.4-0.7,3.4c-0.5,1.1-1.1,2-1.9,2.8
			c-0.8,0.8-1.7,1.4-2.8,1.9c-1.1,0.5-2.2,0.7-3.4,0.7c-1.2,0-2.4-0.2-3.4-0.7s-2-1.1-2.8-1.9c-0.8-0.8-1.4-1.7-1.9-2.8
			c-0.5-1.1-0.7-2.2-0.7-3.4C249,105.5,249.2,104.4,249.7,103.3z"/>
	</g>
	<g>
		<path class="st0" d="M411.7,103.3c0.5-1.1,1.1-2,1.9-2.8c0.8-0.8,1.7-1.4,2.8-1.9s2.2-0.7,3.4-0.7c1.2,0,2.4,0.2,3.4,0.7
			c1.1,0.5,2,1.1,2.8,1.9c0.8,0.8,1.4,1.7,1.9,2.8c0.5,1.1,0.7,2.2,0.7,3.4c0,1.2-0.2,2.4-0.7,3.4c-0.5,1.1-1.1,2-1.9,2.8
			c-0.8,0.8-1.7,1.4-2.8,1.9c-1.1,0.5-2.2,0.7-3.4,0.7c-1.2,0-2.4-0.2-3.4-0.7s-2-1.1-2.8-1.9c-0.8-0.8-1.4-1.7-1.9-2.8
			c-0.5-1.1-0.7-2.2-0.7-3.4C411,105.5,411.3,104.4,411.7,103.3z"/>
	</g>
	<g>
		<path class="st0" d="M575.1,103.2c0.5-1.1,1.1-2,1.9-2.8c0.8-0.8,1.7-1.4,2.8-1.9c1.1-0.5,2.2-0.7,3.4-0.7c1.2,0,2.4,0.2,3.4,0.7
			c1.1,0.5,2,1.1,2.8,1.9c0.8,0.8,1.4,1.7,1.9,2.8c0.5,1.1,0.7,2.2,0.7,3.4c0,1.2-0.2,2.4-0.7,3.4c-0.5,1.1-1.1,2-1.9,2.8
			c-0.8,0.8-1.7,1.4-2.8,1.9c-1.1,0.5-2.2,0.7-3.4,0.7c-1.2,0-2.4-0.2-3.4-0.7c-1.1-0.5-2-1.1-2.8-1.9s-1.4-1.7-1.9-2.8
			c-0.5-1.1-0.7-2.2-0.7-3.4C574.4,105.4,574.6,104.3,575.1,103.2z"/>
	</g>
	<g>
		<path class="st0" d="M737.7,103.2c0.5-1.1,1.1-2,1.9-2.8c0.8-0.8,1.7-1.4,2.8-1.9c1.1-0.5,2.2-0.7,3.4-0.7c1.2,0,2.4,0.2,3.4,0.7
			c1.1,0.5,2,1.1,2.8,1.9c0.8,0.8,1.4,1.7,1.9,2.8c0.5,1.1,0.7,2.2,0.7,3.4c0,1.2-0.2,2.4-0.7,3.4c-0.5,1.1-1.1,2-1.9,2.8
			c-0.8,0.8-1.7,1.4-2.8,1.9c-1.1,0.5-2.2,0.7-3.4,0.7c-1.2,0-2.4-0.2-3.4-0.7c-1.1-0.5-2-1.1-2.8-1.9s-1.4-1.7-1.9-2.8
			c-0.5-1.1-0.7-2.2-0.7-3.4C737,105.4,737.3,104.3,737.7,103.2z"/>
	</g>
	<g>
		<path class="st0" d="M899.8,103.2c0.5-1.1,1.1-2,1.9-2.8c0.8-0.8,1.7-1.4,2.8-1.9c1.1-0.5,2.2-0.7,3.4-0.7c1.2,0,2.4,0.2,3.4,0.7
			c1.1,0.5,2,1.1,2.8,1.9c0.8,0.8,1.4,1.7,1.9,2.8c0.5,1.1,0.7,2.2,0.7,3.4c0,1.2-0.2,2.4-0.7,3.4c-0.5,1.1-1.1,2-1.9,2.8
			c-0.8,0.8-1.7,1.4-2.8,1.9c-1.1,0.5-2.2,0.7-3.4,0.7c-1.2,0-2.4-0.2-3.4-0.7c-1.1-0.5-2-1.1-2.8-1.9s-1.4-1.7-1.9-2.8
			c-0.5-1.1-0.7-2.2-0.7-3.4C899.1,105.4,899.3,104.3,899.8,103.2z"/>
	</g>
	<g>
		<path class="st0" d="M1061.6,103.2c0.5-1.1,1.1-2,1.9-2.8c0.8-0.8,1.7-1.4,2.8-1.9c1.1-0.5,2.2-0.7,3.4-0.7c1.2,0,2.4,0.2,3.4,0.7
			c1.1,0.5,2,1.1,2.8,1.9c0.8,0.8,1.4,1.7,1.9,2.8c0.5,1.1,0.7,2.2,0.7,3.4c0,1.2-0.2,2.4-0.7,3.4c-0.5,1.1-1.1,2-1.9,2.8
			c-0.8,0.8-1.7,1.4-2.8,1.9c-1.1,0.5-2.2,0.7-3.4,0.7c-1.2,0-2.4-0.2-3.4-0.7c-1.1-0.5-2-1.1-2.8-1.9s-1.4-1.7-1.9-2.8
			c-0.5-1.1-0.7-2.2-0.7-3.4C1060.9,105.4,1061.1,104.3,1061.6,103.2z"/>
	</g>
	<path class="st0" d="M98,247.2c2.4,0,4.5,0.4,6.2,1.1c1.7,0.7,3.1,1.6,4.1,2.8c1.1,1.2,1.8,2.5,2.3,4c0.5,1.5,0.7,3,0.7,4.6
		c0,1.6-0.2,3.1-0.7,4.6c-0.5,1.5-1.3,2.8-2.3,4c-1.1,1.2-2.4,2.1-4.1,2.8c-1.7,0.7-3.8,1.1-6.2,1.1h-8.9v13.9h-8.5v-38.7H98z
		 M95.7,265.4c1,0,1.9-0.1,2.8-0.2c0.9-0.1,1.7-0.4,2.4-0.8s1.2-1,1.7-1.8c0.4-0.8,0.6-1.8,0.6-3s-0.2-2.2-0.6-3
		c-0.4-0.8-1-1.3-1.7-1.8s-1.5-0.7-2.4-0.8c-0.9-0.1-1.8-0.2-2.8-0.2h-6.6v11.6H95.7z"/>
	<path class="st0" d="M263.7,246.3c1.7,0,3.3,0.3,4.7,0.8c1.4,0.6,2.6,1.3,3.6,2.3c1,1,1.8,2.1,2.3,3.4c0.5,1.3,0.8,2.7,0.8,4.1
		c0,2.3-0.5,4.2-1.4,5.9c-1,1.7-2.5,2.9-4.7,3.8v0.1c1,0.3,1.9,0.7,2.6,1.3c0.7,0.6,1.2,1.3,1.7,2.1c0.4,0.8,0.7,1.7,0.9,2.7
		c0.2,1,0.3,2,0.4,2.9c0,0.6,0.1,1.3,0.1,2.2c0,0.8,0.1,1.7,0.2,2.5c0.1,0.9,0.2,1.7,0.4,2.5c0.2,0.8,0.5,1.4,0.9,2h-8.5
		c-0.5-1.2-0.8-2.7-0.9-4.4c-0.1-1.7-0.3-3.3-0.5-4.9c-0.3-2-0.9-3.5-1.8-4.4c-0.9-0.9-2.5-1.4-4.6-1.4h-8.5v15.1h-8.5v-38.7H263.7z
		 M260.6,263.7c1.9,0,3.4-0.4,4.4-1.3c1-0.9,1.5-2.3,1.5-4.2c0-1.9-0.5-3.2-1.5-4.1c-1-0.8-2.4-1.3-4.4-1.3h-9.3v10.9H260.6z"/>
	<path class="st0" d="M402.7,258.2c0.9-2.5,2.1-4.6,3.7-6.5c1.6-1.8,3.6-3.3,6-4.3c2.4-1,5-1.6,8-1.6c3,0,5.7,0.5,8,1.6
		c2.3,1,4.3,2.5,6,4.3c1.6,1.8,2.9,4,3.7,6.5c0.9,2.5,1.3,5.2,1.3,8c0,2.8-0.4,5.4-1.3,7.9c-0.9,2.4-2.1,4.6-3.7,6.4
		c-1.6,1.8-3.6,3.2-6,4.3c-2.3,1-5,1.5-8,1.5c-3,0-5.6-0.5-8-1.5c-2.4-1-4.4-2.4-6-4.3c-1.6-1.8-2.9-3.9-3.7-6.4
		c-0.9-2.4-1.3-5.1-1.3-7.9C401.4,263.4,401.8,260.7,402.7,258.2z M410.5,271c0.4,1.5,1,2.9,1.8,4.1c0.8,1.2,1.9,2.2,3.2,3
		c1.3,0.7,3,1.1,4.9,1.1s3.5-0.4,4.9-1.1c1.3-0.7,2.4-1.7,3.2-3c0.8-1.2,1.4-2.6,1.8-4.1c0.4-1.5,0.6-3.1,0.6-4.7
		c0-1.7-0.2-3.3-0.6-4.9c-0.4-1.6-1-3-1.8-4.3c-0.8-1.2-1.9-2.2-3.2-3c-1.3-0.7-3-1.1-4.9-1.1s-3.5,0.4-4.9,1.1
		c-1.3,0.7-2.4,1.7-3.2,3c-0.8,1.2-1.4,2.7-1.8,4.3c-0.4,1.6-0.6,3.2-0.6,4.9C409.9,267.9,410.1,269.5,410.5,271z"/>
	<path class="st0" d="M596.2,277c-0.3,1.5-0.8,2.9-1.7,4.3c-0.9,1.3-2.2,2.4-3.9,3.3c-1.7,0.9-4,1.3-6.9,1.3c-1.6,0-3.2-0.2-4.7-0.7
		c-1.5-0.5-2.9-1.2-4.1-2.1c-1.2-1-2.1-2.2-2.9-3.7c-0.7-1.5-1.1-3.3-1.1-5.4v-3.4h7.7v1.7c0,0.9,0.1,1.8,0.2,2.6
		c0.1,0.8,0.4,1.5,0.8,2c0.4,0.6,0.9,1,1.5,1.3c0.6,0.3,1.5,0.5,2.5,0.5c1.1,0,2-0.2,2.6-0.6c0.6-0.4,1.1-0.9,1.3-1.5
		c0.3-0.6,0.4-1.3,0.5-2.1c0.1-0.7,0.1-1.5,0.1-2.1v-26.1h8.5v26.5C596.6,274.1,596.5,275.4,596.2,277z"/>
	<path class="st0" d="M760.7,247.1v7.1h-20.4v8.3H759v6.6h-18.7v9.5h20.9v7.2h-29.4v-38.7H760.7z"/>
	<path class="st0" d="M916.9,257.5c-0.5-0.8-1.1-1.5-1.9-2.1c-0.8-0.6-1.6-1.1-2.6-1.4c-1-0.3-2-0.5-3-0.5c-1.9,0-3.5,0.4-4.9,1.1
		c-1.3,0.7-2.4,1.7-3.2,3c-0.8,1.2-1.4,2.7-1.8,4.3c-0.4,1.6-0.6,3.2-0.6,4.9c0,1.6,0.2,3.2,0.6,4.7c0.4,1.5,1,2.9,1.8,4.1
		c0.8,1.2,1.9,2.2,3.2,3c1.3,0.7,3,1.1,4.9,1.1c2.6,0,4.6-0.8,6.1-2.4c1.5-1.6,2.4-3.7,2.7-6.3h8.2c-0.2,2.4-0.8,4.6-1.7,6.6
		c-0.9,2-2.1,3.6-3.6,5c-1.5,1.4-3.2,2.4-5.2,3.1c-2,0.7-4.2,1.1-6.6,1.1c-3,0-5.6-0.5-8-1.5c-2.4-1-4.4-2.4-6-4.3
		c-1.6-1.8-2.9-3.9-3.7-6.4c-0.9-2.4-1.3-5.1-1.3-7.9c0-2.9,0.4-5.6,1.3-8c0.9-2.5,2.1-4.6,3.7-6.5c1.6-1.8,3.6-3.3,6-4.3
		c2.4-1,5-1.6,8-1.6c2.1,0,4.1,0.3,6,0.9c1.9,0.6,3.6,1.5,5.1,2.7c1.5,1.2,2.7,2.6,3.7,4.4c1,1.7,1.6,3.7,1.8,6h-8.2
		C917.8,259.2,917.4,258.3,916.9,257.5z"/>
	<path class="st0" d="M1054.4,254.3v-7.1h31.7v7.1h-11.6v31.5h-8.5v-31.5H1054.4z"/>
	<path class="st0" d="M576,435.2c0.5,0.9,1.1,1.6,1.9,2.2c0.8,0.6,1.7,1,2.7,1.2c1,0.3,2.1,0.4,3.2,0.4c0.8,0,1.6-0.1,2.4-0.2
		c0.9-0.1,1.7-0.4,2.4-0.7c0.8-0.4,1.4-0.9,1.9-1.5c0.5-0.6,0.8-1.4,0.8-2.4c0-1-0.3-1.9-1-2.5c-0.7-0.6-1.5-1.2-2.6-1.6
		c-1.1-0.4-2.3-0.8-3.7-1.1c-1.4-0.3-2.8-0.7-4.2-1.1c-1.4-0.4-2.9-0.8-4.2-1.3c-1.4-0.5-2.6-1.2-3.7-2c-1.1-0.8-2-1.9-2.6-3.1
		c-0.7-1.2-1-2.8-1-4.5c0-2,0.4-3.7,1.3-5.2c0.8-1.5,2-2.7,3.3-3.7c1.4-1,2.9-1.7,4.7-2.2c1.7-0.5,3.5-0.7,5.2-0.7
		c2,0,4,0.2,5.8,0.7c1.9,0.5,3.5,1.2,5,2.2c1.4,1,2.6,2.3,3.4,3.9c0.8,1.6,1.3,3.5,1.3,5.7h-8.2c-0.1-1.2-0.3-2.1-0.7-2.9
		c-0.4-0.8-1-1.4-1.7-1.8c-0.7-0.4-1.5-0.7-2.4-0.9c-0.9-0.2-1.9-0.3-2.9-0.3c-0.7,0-1.4,0.1-2.1,0.2c-0.7,0.1-1.3,0.4-1.9,0.8
		c-0.6,0.4-1,0.8-1.4,1.4c-0.4,0.5-0.5,1.2-0.5,2.1c0,0.8,0.1,1.4,0.4,1.8c0.3,0.5,0.9,0.9,1.7,1.3c0.8,0.4,2,0.8,3.5,1.2
		c1.5,0.4,3.5,0.9,5.9,1.5c0.7,0.1,1.7,0.4,3,0.8c1.3,0.4,2.6,1,3.8,1.8c1.3,0.8,2.4,1.9,3.3,3.3c0.9,1.4,1.4,3.2,1.4,5.3
		c0,1.8-0.3,3.4-1,4.9c-0.7,1.5-1.7,2.8-3.1,3.9c-1.4,1.1-3,2-5,2.6c-2,0.6-4.3,0.9-7,0.9c-2.1,0-4.2-0.3-6.2-0.8
		c-2-0.5-3.8-1.3-5.3-2.5c-1.5-1.1-2.8-2.5-3.7-4.3c-0.9-1.7-1.3-3.8-1.3-6.2h8.2C575.3,433.2,575.6,434.3,576,435.2z"/>
	<g>
		<path class="st0" d="M87.2,422c0.5-1.1,1.1-2,1.9-2.8c0.8-0.8,1.7-1.4,2.8-1.9c1.1-0.5,2.2-0.7,3.4-0.7c1.2,0,2.4,0.2,3.4,0.7
			c1.1,0.5,2,1.1,2.8,1.9c0.8,0.8,1.4,1.7,1.9,2.8c0.5,1.1,0.7,2.2,0.7,3.4c0,1.2-0.2,2.4-0.7,3.4c-0.5,1.1-1.1,2-1.9,2.8
			c-0.8,0.8-1.7,1.4-2.8,1.9c-1.1,0.5-2.2,0.7-3.4,0.7c-1.2,0-2.4-0.2-3.4-0.7c-1.1-0.5-2-1.1-2.8-1.9c-0.8-0.8-1.4-1.7-1.9-2.8
			c-0.5-1.1-0.7-2.2-0.7-3.4C86.5,424.2,86.7,423,87.2,422z"/>
	</g>
	<g>
		<path class="st0" d="M249.8,422c0.5-1.1,1.1-2,1.9-2.8c0.8-0.8,1.7-1.4,2.8-1.9c1.1-0.5,2.2-0.7,3.4-0.7c1.2,0,2.4,0.2,3.4,0.7
			c1.1,0.5,2,1.1,2.8,1.9c0.8,0.8,1.4,1.7,1.9,2.8c0.5,1.1,0.7,2.2,0.7,3.4c0,1.2-0.2,2.4-0.7,3.4c-0.5,1.1-1.1,2-1.9,2.8
			c-0.8,0.8-1.7,1.4-2.8,1.9c-1.1,0.5-2.2,0.7-3.4,0.7c-1.2,0-2.4-0.2-3.4-0.7c-1.1-0.5-2-1.1-2.8-1.9c-0.8-0.8-1.4-1.7-1.9-2.8
			c-0.5-1.1-0.7-2.2-0.7-3.4C249.1,424.2,249.4,423,249.8,422z"/>
	</g>
	<g>
		<path class="st0" d="M411.9,422c0.5-1.1,1.1-2,1.9-2.8c0.8-0.8,1.7-1.4,2.8-1.9c1.1-0.5,2.2-0.7,3.4-0.7c1.2,0,2.4,0.2,3.4,0.7
			c1.1,0.5,2,1.1,2.8,1.9c0.8,0.8,1.4,1.7,1.9,2.8c0.5,1.1,0.7,2.2,0.7,3.4c0,1.2-0.2,2.4-0.7,3.4c-0.5,1.1-1.1,2-1.9,2.8
			c-0.8,0.8-1.7,1.4-2.8,1.9c-1.1,0.5-2.2,0.7-3.4,0.7c-1.2,0-2.4-0.2-3.4-0.7c-1.1-0.5-2-1.1-2.8-1.9c-0.8-0.8-1.4-1.7-1.9-2.8
			c-0.5-1.1-0.7-2.2-0.7-3.4C411.2,424.2,411.4,423,411.9,422z"/>
	</g>
	<path class="st0" d="M728.3,417.5c0.9-2.5,2.1-4.6,3.7-6.5c1.6-1.8,3.6-3.3,6-4.3c2.4-1,5-1.6,8-1.6c3,0,5.7,0.5,8,1.6
		c2.3,1,4.3,2.5,6,4.3c1.6,1.8,2.9,4,3.7,6.5c0.9,2.5,1.3,5.2,1.3,8c0,2.8-0.4,5.4-1.3,7.9c-0.9,2.4-2.1,4.6-3.7,6.4
		c-1.6,1.8-3.6,3.2-6,4.3c-2.3,1-5,1.5-8,1.5c-3,0-5.6-0.5-8-1.5c-2.4-1-4.4-2.4-6-4.3c-1.6-1.8-2.9-3.9-3.7-6.4
		c-0.9-2.4-1.3-5.1-1.3-7.9C727,422.7,727.4,420,728.3,417.5z M736.1,430.3c0.4,1.5,1,2.9,1.8,4.1s1.9,2.2,3.3,3
		c1.3,0.7,3,1.1,4.9,1.1s3.5-0.4,4.9-1.1c1.3-0.7,2.4-1.7,3.3-3c0.8-1.2,1.4-2.6,1.8-4.1c0.4-1.5,0.6-3.1,0.6-4.7
		c0-1.7-0.2-3.3-0.6-4.9c-0.4-1.6-1-3-1.8-4.3c-0.8-1.2-1.9-2.2-3.3-3c-1.3-0.7-3-1.1-4.9-1.1s-3.5,0.4-4.9,1.1
		c-1.3,0.7-2.4,1.7-3.3,3s-1.4,2.7-1.8,4.3c-0.4,1.6-0.6,3.2-0.6,4.9C735.5,427.2,735.7,428.8,736.1,430.3z"/>
	<path class="st0" d="M920.2,441.3c-2.9,2.5-7,3.8-12.1,3.8c-5.2,0-9.3-1.3-12.2-3.8c-2.9-2.5-4.3-6.4-4.3-11.7v-24h8.5v24
		c0,1,0.1,2.1,0.3,3.1c0.2,1,0.6,1.9,1.1,2.7c0.6,0.8,1.4,1.4,2.4,1.9s2.4,0.7,4.1,0.7c3,0,5.1-0.7,6.3-2c1.2-1.4,1.7-3.5,1.7-6.4
		v-24h8.5v24C924.5,434.8,923.1,438.7,920.2,441.3z"/>
	<path class="st0" d="M1064.7,406v31.5h18.8v7.2h-27.4V406H1064.7z"/>
</g>
</svg>
